name C:\Users\u0101727\Documents\MyRepositories\upper-imu-dc\Results\main_tracking\Case_45\kinematics.mot
datacolumns 10
datarows 42
range 3.50000000 3.74600000
endheader 
time	clav_prot	clav_elev	scapula_abduction	scapula_elevation	scapula_upward_rot	scapula_winging	plane_elv	shoulder_elv	axial_rot	
          3.50000000	        -44.43675393	          9.02955370	          0.87350590	         -1.63497597	         84.23034073	        -11.79099588	         37.77938988	         87.70295706	         -7.44220788	
          3.50600000	        -44.43656681	          9.03192666	          0.86923772	         -1.63401016	         84.22509430	        -11.79241512	         37.80614475	         87.68524774	         -7.41896426	
          3.51200000	        -44.43610927	          9.03407199	          0.86517005	         -1.63322742	         84.21943449	        -11.79367428	         37.83215921	         87.66713923	         -7.39571671	
          3.51800000	        -44.43538771	          9.03594614	          0.86130479	         -1.63265747	         84.21336422	        -11.79476593	         37.85734640	         87.64864676	         -7.37244715	
          3.52400000	        -44.43440889	          9.03750708	          0.85764570	         -1.63232854	         84.20689015	        -11.79568265	         37.88162980	         87.62978851	         -7.34912642	
          3.53000000	        -44.43318014	          9.03871519	          0.85419791	         -1.63226678	         84.20002274	        -11.79641727	         37.90494390	         87.61058566	         -7.32571423	
          3.53600000	        -44.43170951	          9.03953406	          0.85096736	         -1.63249579	         84.19277617	        -11.79696326	         37.92723459	         87.59106228	         -7.30215997	
          3.54200000	        -44.43000596	          9.03993124	          0.84796022	         -1.63303607	         84.18516820	        -11.79731505	         37.94845937	         87.57124527	         -7.27840408	
          3.54800000	        -44.42807949	          9.03987893	          0.84518231	         -1.63390467	         84.17721991	        -11.79746830	         37.96858736	         87.55116419	         -7.25438063	
          3.55400000	        -44.42594122	          9.03935461	          0.84263859	         -1.63511477	         84.16895541	        -11.79742019	         37.98759902	         87.53085098	         -7.23002030	
          3.56000000	        -44.42360336	          9.03834153	          0.84033268	         -1.63667537	         84.16040142	        -11.79716961	         38.00548571	         87.51033962	         -7.20525403	
          3.56600000	        -44.42107916	          9.03682921	          0.83826662	         -1.63859107	         84.15158681	        -11.79671729	         38.02224895	         87.48966572	         -7.18001708	
          3.57200000	        -44.41838264	          9.03481378	          0.83644068	         -1.64086187	         84.14254201	        -11.79606587	         38.03789958	         87.46886599	         -7.15425319	
          3.57800000	        -44.41552829	          9.03229818	          0.83485341	         -1.64348306	         84.13329842	        -11.79521981	         38.05245673	         87.44797766	         -7.12791872	
          3.58400000	        -44.41253063	          9.02929224	          0.83350186	         -1.64644520	         84.12388769	        -11.79418531	         38.06594672	         87.42703787	         -7.10098661	
          3.59000000	        -44.40940372	          9.02581261	          0.83238185	         -1.64973429	         84.11434105	        -11.79297004	         38.07840195	         87.40608295	         -7.07344994	
          3.59600000	        -44.40616066	          9.02188253	          0.83148830	         -1.65333192	         84.10468853	        -11.79158294	         38.08985992	         87.38514777	         -7.04532489	
          3.60200000	        -44.40281312	          9.01753143	          0.83081557	         -1.65721558	         84.09495816	        -11.79003395	         38.10036236	         87.36426503	         -7.01665319	
          3.60800000	        -44.39937092	          9.01279440	          0.83035766	         -1.66135915	         84.08517519	        -11.78833375	         38.10995463	         87.34346459	         -6.98750367	
          3.61400000	        -44.39584169	          9.00771162	          0.83010832	         -1.66573330	         84.07536130	        -11.78649353	         38.11868539	         87.32277286	         -6.95797301	
          3.62000000	        -44.39223070	          9.00232768	          0.83006098	         -1.67030604	         84.06553388	        -11.78452486	         38.12660647	         87.30221213	         -6.92818585	
          3.62600000	        -44.38854070	          8.99669093	          0.83020862	         -1.67504327	         84.05570530	        -11.78243952	         38.13377297	         87.28180008	         -6.89829395	
          3.63200000	        -44.38477189	          8.99085283	          0.83054354	         -1.67990921	         84.04588233	        -11.78024949	         38.14024359	         87.26154932	         -6.86847487	
          3.63800000	        -44.38092191	          8.98486726	          0.83105711	         -1.68486702	         84.03606558	        -11.77796679	         38.14608104	         87.24146696	         -6.83892968	
          3.64400000	        -44.37698592	          8.97878983	          0.83173946	         -1.68987928	         84.02624913	        -11.77560350	         38.15135272	         87.22155427	         -6.80988027	
          3.65000000	        -44.37295673	          8.97267721	          0.83257930	         -1.69490849	         84.01642019	        -11.77317167	         38.15613131	         87.20180647	         -6.78156605	
          3.65600000	        -44.36882470	          8.96658647	          0.83356397	         -1.69991756	         84.00655893	        -11.77068319	         38.16049539	         87.18221255	         -6.75424040	
          3.66200000	        -44.36457779	          8.96057444	          0.83467956	         -1.70487022	         83.99663842	        -11.76814957	         38.16452996	         87.16275527	         -6.72816663	
          3.66800000	        -44.36020136	          8.95469708	          0.83591144	         -1.70973144	         83.98662467	        -11.76558174	         38.16832679	         87.14341125	         -6.70361382	
          3.67400000	        -44.35567791	          8.94900892	          0.83724484	         -1.71446776	         83.97647678	        -11.76298965	         38.17198463	         87.12415111	         -6.68085246	
          3.68000000	        -44.35098682	          8.94356246	          0.83866576	         -1.71904765	         83.96614718	        -11.76038192	         38.17560931	         87.10493985	         -6.66014995	
          3.68600000	        -44.34610389	          8.93840766	          0.84016194	         -1.72344181	         83.95558183	        -11.75776536	         38.17931358	         87.08573721	         -6.64176622	
          3.69200000	        -44.34100094	          8.93359132	          0.84172392	         -1.72762346	         83.94472047	        -11.75514450	         38.18321687	         87.06649829	         -6.62594925	
          3.69800000	        -44.33564524	          8.92915662	          0.84334624	         -1.73156866	         83.93349683	        -11.75252111	         38.18744484	         87.04717422	         -6.61293096	
          3.70400000	        -44.32999906	          8.92514259	          0.84502858	         -1.73525652	         83.92183882	        -11.74989363	         38.19212874	         87.02771301	         -6.60292321	
          3.71000000	        -44.32401904	          8.92158369	          0.84677685	         -1.73866949	         83.90966866	        -11.74725677	         38.19740469	         87.00806047	         -6.59611411	
          3.71600000	        -44.31765577	          8.91850944	          0.84860430	         -1.74179349	         83.89690306	        -11.74460097	         38.20341275	         86.98816114	         -6.59266472	
          3.72200000	        -44.31085336	          8.91594421	          0.85053243	         -1.74461803	         83.88345345	        -11.74191210	         38.21029590	         86.96795928	         -6.59270593	
          3.72800000	        -44.30354907	          8.91390710	          0.85259184	         -1.74713616	         83.86922630	        -11.73917114	         38.21819894	         86.94739974	         -6.59633604	
          3.73400000	        -44.29567311	          8.91241205	          0.85482288	         -1.74934437	         83.85412358	        -11.73635397	         38.22726730	         86.92642882	         -6.60361856	
          3.74000000	        -44.28714856	          8.91146790	          0.85727630	         -1.75124245	         83.83804329	        -11.73343125	         38.23764575	         86.90499496	         -6.61458061	
          3.74600000	        -44.27789128	          8.91107858	          0.86001383	         -1.75283324	         83.82088024	        -11.73036831	         38.24947714	         86.88304935	         -6.62921170	
